<svg width="1120" height="420" viewBox="0 0 1120 420" fill="none" xmlns="http://www.w3.org/2000/svg" role="img" aria-labelledby="title desc">
  <title id="title">Auto Email System visual overview</title>
  <desc id="desc">A visual overview of an AI inbox console with email triage, summaries, multimodal analysis, and WeChat notifications.</desc>
  <defs>
    <linearGradient id="bg" x1="0" y1="0" x2="1120" y2="420" gradientUnits="userSpaceOnUse">
      <stop stop-color="#F7FAF5"/>
      <stop offset="0.52" stop-color="#EFF6F0"/>
      <stop offset="1" stop-color="#FEFCF6"/>
    </linearGradient>
    <linearGradient id="panel" x1="92" y1="76" x2="982" y2="358" gradientUnits="userSpaceOnUse">
      <stop stop-color="#FFFFFF"/>
      <stop offset="1" stop-color="#F8FBF7"/>
    </linearGradient>
    <filter id="shadow" x="34" y="18" width="1052" height="386" filterUnits="userSpaceOnUse" color-interpolation-filters="sRGB">
      <feFlood flood-opacity="0" result="BackgroundImageFix"/>
      <feColorMatrix in="SourceAlpha" type="matrix" values="0 0 0 0 0 0 0 0 0 0 0 0 0 0 0 0 0 0 127 0" result="hardAlpha"/>
      <feOffset dy="18"/>
      <feGaussianBlur stdDeviation="24"/>
      <feColorMatrix type="matrix" values="0 0 0 0 0.12 0 0 0 0 0.22 0 0 0 0 0.18 0 0 0 0.14 0"/>
      <feBlend mode="normal" in2="BackgroundImageFix" result="effect1_dropShadow_1_1"/>
      <feBlend mode="normal" in="SourceGraphic" in2="effect1_dropShadow_1_1" result="shape"/>
    </filter>
  </defs>

  <rect width="1120" height="420" rx="34" fill="url(#bg)"/>
  <path d="M0 328C142 277 235 343 365 292C512 235 588 258 712 291C846 327 973 304 1120 238V420H0V328Z" fill="#E7F0EA" opacity="0.72"/>

  <g filter="url(#shadow)">
    <rect x="72" y="54" width="976" height="312" rx="24" fill="url(#panel)" stroke="#D9E4DA"/>
  </g>

  <rect x="96" y="78" width="212" height="264" rx="18" fill="#111A17"/>
  <rect x="120" y="104" width="48" height="48" rx="12" fill="#E9F2EC"/>
  <path d="M132 121H156V137H132V121Z" stroke="#205A4B" stroke-width="2.4" stroke-linejoin="round"/>
  <path d="M132 121L144 130L156 121" stroke="#205A4B" stroke-width="2.4" stroke-linecap="round" stroke-linejoin="round"/>
  <text x="120" y="184" fill="#FFFFFF" font-family="Inter,Segoe UI,Arial,sans-serif" font-size="22" font-weight="700">AI Inbox Console</text>
  <text x="120" y="212" fill="#B9C9C2" font-family="Inter,Segoe UI,Arial,sans-serif" font-size="13">Read, classify, summarize</text>
  <rect x="120" y="242" width="164" height="42" rx="11" fill="#205A4B"/>
  <text x="144" y="268" fill="#FFFFFF" font-family="Inter,Segoe UI,Arial,sans-serif" font-size="14" font-weight="700">Processing Desk</text>
  <rect x="120" y="296" width="114" height="16" rx="8" fill="#DCE8E1" opacity="0.36"/>

  <g>
    <rect x="344" y="86" width="190" height="92" rx="16" fill="#FFFDFC" stroke="#E6CFC6"/>
    <rect x="364" y="108" width="38" height="38" rx="10" fill="#F6E7E1"/>
    <path d="M383 117L394 138H372L383 117Z" stroke="#C75B45" stroke-width="2" stroke-linejoin="round"/>
    <text x="418" y="122" fill="#67746E" font-family="Inter,Segoe UI,Arial,sans-serif" font-size="13">Important</text>
    <text x="418" y="154" fill="#101614" font-family="Inter,Segoe UI,Arial,sans-serif" font-size="34" font-weight="800">5</text>

    <rect x="552" y="86" width="190" height="92" rx="16" fill="#FFFDFC" stroke="#D8D7EB"/>
    <rect x="572" y="108" width="38" height="38" rx="10" fill="#ECEBF6"/>
    <path d="M591 116L596 126L607 128L599 136L601 147L591 142L581 147L583 136L575 128L586 126L591 116Z" stroke="#6B69A6" stroke-width="2" stroke-linejoin="round"/>
    <text x="626" y="122" fill="#67746E" font-family="Inter,Segoe UI,Arial,sans-serif" font-size="13">Secondary</text>
    <text x="626" y="154" fill="#101614" font-family="Inter,Segoe UI,Arial,sans-serif" font-size="34" font-weight="800">28</text>

    <rect x="760" y="86" width="190" height="92" rx="16" fill="#FFFDFC" stroke="#DCE6E1"/>
    <rect x="780" y="108" width="38" height="38" rx="10" fill="#EAF1EE"/>
    <path d="M789 123H809V139H789V123Z" stroke="#1F6A58" stroke-width="2"/>
    <path d="M793 127H805" stroke="#1F6A58" stroke-width="2" stroke-linecap="round"/>
    <text x="834" y="122" fill="#67746E" font-family="Inter,Segoe UI,Arial,sans-serif" font-size="13">Archived</text>
    <text x="834" y="154" fill="#7A8580" font-family="Inter,Segoe UI,Arial,sans-serif" font-size="34" font-weight="800">220</text>
  </g>

  <g>
    <rect x="344" y="206" width="362" height="104" rx="16" fill="#FFFFFF" stroke="#DCE6DF"/>
    <circle cx="370" cy="235" r="4" fill="#205A4B"/>
    <text x="388" y="239" fill="#17201C" font-family="Inter,Segoe UI,Arial,sans-serif" font-size="17" font-weight="800">Security alert</text>
    <text x="388" y="266" fill="#6A766F" font-family="Inter,Segoe UI,Arial,sans-serif" font-size="13">Google account sign-in detected on Windows.</text>
    <rect x="388" y="282" width="96" height="14" rx="7" fill="#EAF2EE"/>
    <rect x="494" y="282" width="74" height="14" rx="7" fill="#F1F4F0"/>

    <rect x="344" y="324" width="300" height="18" rx="9" fill="#DFEAE4"/>
  </g>

  <g>
    <rect x="734" y="206" width="262" height="104" rx="16" fill="#F8FBF7" stroke="#DCE6DF"/>
    <text x="758" y="235" fill="#205A4B" font-family="Inter,Segoe UI,Arial,sans-serif" font-size="12" font-weight="800">Chinese summary</text>
    <text x="758" y="263" fill="#1A211E" font-family="Inter,Segoe UI,Arial,sans-serif" font-size="15" font-weight="700">AI extracts the action, reason,</text>
    <text x="758" y="285" fill="#1A211E" font-family="Inter,Segoe UI,Arial,sans-serif" font-size="15" font-weight="700">deadline, and notification target.</text>
  </g>

  <g>
    <path d="M662 238C684 238 694 238 716 238" stroke="#205A4B" stroke-width="3" stroke-linecap="round"/>
    <path d="M708 230L718 238L708 246" stroke="#205A4B" stroke-width="3" stroke-linecap="round" stroke-linejoin="round"/>
    <path d="M500 178C512 196 524 199 548 202" stroke="#6B69A6" stroke-width="2.5" stroke-linecap="round" stroke-dasharray="6 8"/>
    <path d="M844 178C836 194 831 199 810 204" stroke="#6B69A6" stroke-width="2.5" stroke-linecap="round" stroke-dasharray="6 8"/>
  </g>
</svg>
